<?xml version="1.0" encoding="utf-8"?>
<!-- Generator: Adobe Illustrator 25.0.1, SVG Export Plug-In . SVG Version: 6.00 Build 0)  -->
<svg version="1.1" id="Layer_1" xmlns="http://www.w3.org/2000/svg" xmlns:xlink="http://www.w3.org/1999/xlink" x="0px" y="0px"
	 viewBox="0 0 56.8 56.8" style="enable-background:new 0 0 56.8 56.8;" xml:space="preserve">
<g>
	<g>
		<path d="M28.4,56.8l-8.3-8.3H8.3V36.7L0,28.4l8.3-8.3V8.3h11.8L28.4,0l8.3,8.3h11.8v11.8l8.3,8.3l-8.3,8.3v11.8H36.7L28.4,56.8z
			 M10.3,46.5h10.6l7.5,7.5l7.5-7.5h10.6V35.9l7.5-7.5l-7.5-7.5V10.3H35.9l-7.5-7.5l-7.5,7.5H10.3v10.6l-7.5,7.5l7.5,7.5V46.5z"/>
		<g>
			<path d="M34.9,29.9c0.4-0.8,1.2-1.5,2.1-1.8c0.9-0.3,1.9-0.4,2.8-0.3c0.9,0.1,1.9,0.2,2.8,0.5c0.9,0.3,1.8,0.6,2.6,1l1,0.4
				l-0.9,0.7c-1.8,1.4-3.7,2.5-5.8,3.3c-1.1,0.4-2.3,0.6-3.5,0.6c-1.4-0.1-2.7-0.9-3.4-2.2C32.2,31.6,32,31,32,30.4
				c-0.1-0.6-0.2-1.1-0.2-1.7c-0.1-1.1-0.3-2.1-0.4-3.2c-0.2-2.2-0.4-4.3-0.4-6.6l1.8,0.1c-0.2,1.7-0.5,3.5-1,5.1
				c-0.5,1.7-1.1,3.3-1.9,4.9c-0.8,1.6-1.9,3-3.3,4.1c-1.3,1.1-3,1.8-4.8,1.8c1.6-0.3,3.1-1.2,4.3-2.4c1.1-1.2,2-2.6,2.6-4.2
				c0.6-1.5,1.1-3.1,1.5-4.7c0.3-1.6,0.6-3.2,0.7-4.9l1.8,0.1c0.1,2.1,0.3,4.2,0.5,6.4l0.4,3.2c0.1,0.5,0.1,1.1,0.2,1.6
				c0.1,0.4,0.2,0.9,0.4,1.3c0.3,0.7,1,1.2,1.8,1.2c1,0.1,1.9-0.1,2.8-0.4c2-0.7,3.9-1.6,5.6-2.7l0.1,1.1c-0.8-0.4-1.6-0.8-2.4-1.2
				c-0.4-0.2-0.8-0.3-1.2-0.4c-0.4-0.1-0.8-0.2-1.3-0.3c-0.9-0.2-1.7-0.2-2.6,0C36.2,28.8,35.4,29.2,34.9,29.9z"/>
			<path d="M22.9,20.9c0.4,0.1,0.8,0.2,1.1,0.4c0.3,0.2,0.6,0.4,0.9,0.6c0.5,0.4,0.9,1,1.2,1.6c0.3,0.5,0.5,1.1,0.6,1.7
				c0.1,0.6,0.2,1.2,0.2,1.7c-0.2-0.5-0.4-1.1-0.7-1.6c-0.3-0.5-0.6-0.9-1-1.3c-0.3-0.4-0.7-0.7-1.2-0.9c-0.2-0.1-0.4-0.2-0.6-0.2
				c-0.2,0-0.3,0-0.5,0L22.9,20.9z"/>
			<path d="M20,15.9c0.7,2.4,1.2,4.8,1.5,7.2c0.1,1.2,0.2,2.5,0.1,3.7c0,1.3-0.3,2.6-0.7,3.8c-0.3,0.7-0.7,1.3-1.2,1.8
				c-0.5,0.5-1.1,0.9-1.7,1.2c-1.3,0.7-2.8,0.9-4.3,0.5c-0.8-0.3-1.4-0.8-1.9-1.5c-0.1-0.2-0.2-0.3-0.3-0.5
				c-0.1-0.2-0.1-0.4-0.2-0.5c-0.1-0.4-0.1-0.7-0.1-1.1c0.1-1.3,0.6-2.6,1.5-3.6L13,27c-0.3,1.1-0.4,2.3-0.3,3.5
				c0,0.2,0.1,0.5,0.2,0.7c0.1,0.2,0.2,0.4,0.4,0.5c0.3,0.3,0.6,0.5,1,0.6c1,0.2,1.9,0,2.8-0.3c0.5-0.2,0.9-0.4,1.4-0.7
				c0.4-0.3,0.7-0.7,0.9-1.1c0.5-1,0.8-2.1,0.9-3.3c0.1-1.2,0.2-2.4,0.2-3.6c0-2.4-0.2-4.8-0.6-7.2L20,15.9z"/>
		</g>
	</g>
</g>
</svg>
