<?xml version="1.0" encoding="utf-8"?>
<!-- Generator: Adobe Illustrator 24.3.0, SVG Export Plug-In . SVG Version: 6.00 Build 0)  -->
<svg version="1.1" id="Layer_1" xmlns="http://www.w3.org/2000/svg" xmlns:xlink="http://www.w3.org/1999/xlink" x="0px" y="0px"
	 viewBox="0 0 2624.73 1622.66" style="enable-background:new 0 0 2624.73 1622.66;" xml:space="preserve">
<style type="text/css">
	.st0{fill:#202124;}
	.st1{fill:#1D1D1B;}
	.st2{fill:#F80F01;}
	.st3{fill:#FCD2BE;}
	.st4{fill:none;}
	.st5{fill:#194E37;}
	.st6{fill:none;stroke:#ED6C39;stroke-width:0.5;stroke-miterlimit:10;}
	.st7{fill:#FFFFFF;}
	.st8{fill:none;stroke:#6CBE9D;stroke-width:0.5;stroke-miterlimit:10;}
</style>
<g>
	<path class="st0" d="M2077.74,210.74V550.3v858.96c127.06-100.02,208.66-255.22,208.66-429.48V210.74H2077.74z"/>
	<rect x="808.42" y="210.74" class="st0" width="208.66" height="668.04"/>
	<path class="st0" d="M530.03,541.17c0.02,1.2,0.05,2.39,0.05,3.59c0,103.96-84.27,188.23-188.23,188.23v145.79
		c186.46,0,337.61-151.16,337.61-337.61H530.03z"/>
	<path class="st0" d="M1741.38,541.17h-129.45v129.81C1644.38,618.29,1688.79,573.76,1741.38,541.17z"/>
	<circle class="st0" cx="381.69" cy="581.02" r="39.85"/>
	<path class="st0" d="M1950.13,541.17c-140.96,0-261.72,86.4-312.27,209.12h-155.65V541.17c-186.46,0-337.61,151.16-337.61,337.61
		h128.96v530.48c127.06-100.02,208.66-255.22,208.66-429.48V879.24h169.74v-0.46h298.18V541.17z"/>
</g>
<rect x="3.51" class="st4" width="337.61" height="1620"/>
<rect x="1206.28" y="-1206.28" transform="matrix(6.123234e-17 -1 1 6.123234e-17 1206.2789 1414.9362)" class="st4" width="208.66" height="2621.22"/>
<rect x="1209.79" y="203.42" transform="matrix(6.123234e-17 -1 1 6.123234e-17 -199.9094 2828.1528)" class="st4" width="208.66" height="2621.22"/>
<rect x="2287.12" y="2.66" class="st4" width="337.61" height="1620"/>
</svg>
